<svg width="567" height="137" viewBox="0 0 567 137" fill="none" xmlns="http://www.w3.org/2000/svg">
<path d="M171.645 133.842C169.436 133.862 167.629 132.088 167.609 129.879L167.465 113.879C167.445 111.67 169.22 109.863 171.429 109.843L258.222 109.06L258.439 133.059L171.645 133.842Z" fill="#E63946"/>
<path d="M171.66 66.4917C169.451 66.5117 167.644 64.737 167.624 62.528L167.48 46.5286C167.46 44.3196 169.234 42.5126 171.443 42.4927L258.237 41.7091L258.453 65.7081L171.66 66.4917Z" fill="#E63946"/>
<path d="M171.676 99.7461C169.467 99.7661 167.66 97.9914 167.64 95.7824L167.495 79.783C167.475 77.574 169.25 75.767 171.459 75.7471L218.826 75.3194L219.043 99.3184L171.676 99.7461Z" fill="#E63946"/>
<path d="M0.00976562 134.375V40.557H32.0154V58.3923H32.9927C34.9473 52.5286 38.2863 47.8866 43.0098 44.4661C47.7333 41.0457 53.3526 39.3354 59.8677 39.3354C66.4643 39.3354 72.1447 41.0864 76.9089 44.5883C81.6731 48.0495 84.5439 52.6508 85.5211 58.3923H86.4984C88.0865 52.6508 91.4662 48.0495 96.6376 44.5883C101.809 41.0864 107.876 39.3354 114.839 39.3354C123.838 39.3354 131.127 42.2265 136.706 48.0087C142.325 53.7909 145.135 61.487 145.135 71.0968V134.375H111.419V79.6479C111.419 75.5353 110.381 72.3184 108.304 69.9974C106.227 67.6356 103.438 66.4548 99.9359 66.4548C96.4747 66.4548 93.7261 67.6356 91.6902 69.9974C89.6949 72.3184 88.6973 75.5353 88.6973 79.6479V134.375H56.4473V79.6479C56.4473 75.5353 55.4089 72.3184 53.3322 69.9974C51.2555 67.6356 48.4662 66.4548 44.9643 66.4548C42.6433 66.4548 40.648 66.9841 38.9785 68.0428C37.309 69.1015 36.006 70.6285 35.0694 72.6238C34.1736 74.5783 33.7257 76.9197 33.7257 79.6479V134.375H0.00976562Z" fill="white"/>
<path d="M336.959 40.5568V64.9886H275.146V40.5568H336.959ZM287.118 18.0795H320.834V104.202C320.834 105.505 321.058 106.604 321.506 107.5C321.954 108.355 322.646 109.007 323.583 109.455C324.519 109.862 325.72 110.065 327.186 110.065C328.204 110.065 329.385 109.943 330.729 109.699C332.113 109.455 333.131 109.251 333.783 109.088L338.669 132.787C337.163 133.235 335.004 133.785 332.195 134.436C329.426 135.088 326.128 135.515 322.3 135.719C314.563 136.126 308.068 135.332 302.816 133.337C297.563 131.301 293.613 128.104 290.966 123.747C288.319 119.39 287.037 113.934 287.118 107.378V18.0795Z" fill="white"/>
<path d="M350.717 134.375V40.5568H383.456V58.392H384.433C386.143 51.7955 388.851 46.9702 392.557 43.9162C396.303 40.8622 400.68 39.3352 405.689 39.3352C407.155 39.3352 408.6 39.4574 410.025 39.7017C411.491 39.9053 412.896 40.2107 414.24 40.6179V69.3864C412.57 68.8163 410.514 68.3887 408.071 68.1037C405.628 67.8187 403.531 67.6761 401.78 67.6761C398.481 67.6761 395.509 68.4294 392.862 69.9361C390.256 71.402 388.2 73.4787 386.693 76.1662C385.186 78.813 384.433 81.928 384.433 85.5114V134.375H350.717Z" fill="white"/>
<path d="M425.295 134.375V40.5568H459.011V134.375H425.295ZM442.153 30.7841C437.593 30.7841 433.684 29.2775 430.426 26.2642C427.168 23.2509 425.54 19.6269 425.54 15.392C425.54 11.1572 427.168 7.53314 430.426 4.51988C433.684 1.50663 437.593 0 442.153 0C446.755 0 450.664 1.50663 453.881 4.51988C457.138 7.53314 458.767 11.1572 458.767 15.392C458.767 19.6269 457.138 23.2509 453.881 26.2642C450.664 29.2775 446.755 30.7841 442.153 30.7841Z" fill="white"/>
<path d="M521.389 136.085C511.209 136.085 502.495 134.07 495.247 130.038C487.999 125.966 482.44 120.306 478.572 113.058C474.704 105.769 472.769 97.3201 472.769 87.7102C472.769 78.1004 474.704 69.6714 478.572 62.4233C482.44 55.1345 487.999 49.4744 495.247 45.4432C502.495 41.3712 511.209 39.3352 521.389 39.3352C530.591 39.3352 538.552 41.0047 545.271 44.3438C552.03 47.642 557.263 52.3248 560.968 58.392C564.674 64.4186 566.547 71.5038 566.588 79.6477H535.315C534.867 74.7206 533.442 70.9744 531.039 68.4091C528.678 65.803 525.624 64.5 521.877 64.5C518.945 64.5 516.38 65.3551 514.181 67.0653C511.982 68.7348 510.272 71.2798 509.051 74.7003C507.829 78.08 507.218 82.3352 507.218 87.4659C507.218 92.5966 507.829 96.8722 509.051 100.293C510.272 103.672 511.982 106.217 514.181 107.928C516.38 109.597 518.945 110.432 521.877 110.432C524.361 110.432 526.56 109.862 528.474 108.722C530.388 107.541 531.935 105.83 533.116 103.591C534.338 101.311 535.071 98.5417 535.315 95.2841H566.588C566.465 103.55 564.572 110.758 560.907 116.906C557.242 123.014 552.051 127.738 545.332 131.077C538.654 134.416 530.673 136.085 521.389 136.085Z" fill="white"/>
</svg>
