<?xml version="1.0" encoding="UTF-8"?>
<!DOCTYPE svg PUBLIC "-//W3C//DTD SVG 1.1//EN" "http://www.w3.org/Graphics/SVG/1.1/DTD/svg11.dtd">
<svg version="1.1" xmlns="http://www.w3.org/2000/svg" xmlns:xlink="http://www.w3.org/1999/xlink" x="0" y="0" width="384.095" height="293.386" viewBox="0, 0, 384.095, 293.386">
  <g id="Layer_1">
    <path d="M47.216,243.864 L223.902,243.864 L223.902,109.124 L47.216,109.124 L47.216,243.864 z" fill="#666666" id="path6037"/>
    <path d="M47.216,243.864 L223.902,243.864 L223.902,109.124 L47.216,109.124 L47.216,243.864 z" fill-opacity="0" stroke="#000000" stroke-width="3.197" stroke-linejoin="round" id="path6041"/>
    <path d="M223.901,243.864 L223.901,109.128 L362.25,243.864 L223.901,243.864 z" fill="#666666" id="path6043"/>
    <path d="M223.902,243.864 L223.902,109.128 L362.25,243.864 L223.902,243.864 z" fill-opacity="0" stroke="#000000" stroke-width="3.197" stroke-linejoin="round" id="path6047"/>
    <path d="M47.216,0 L47.216,244.128" fill-opacity="0" stroke="#000000" stroke-width="3.197" stroke-linejoin="round" id="path6051"/>
    <path d="M47.216,243.864 L383.245,243.864" fill-opacity="0" stroke="#000000" stroke-width="3.197" stroke-linejoin="round" id="path6055"/>
    <path d="M359.88,264.864 L359.88,264.564 C358.38,264.564 357.98,264.204 357.98,263.344 L357.98,251.404 L357.8,251.344 L354.22,253.164 L354.22,253.444 L354.76,253.244 C355.12,253.104 355.46,253.004 355.66,253.004 C356.08,253.004 356.26,253.304 356.26,253.984 L356.26,262.964 C356.26,264.064 355.84,264.484 354.36,264.564 L354.36,264.864 z" fill="#000000"/>
    <path d="M370.9,261.764 C370.9,260.164 370.26,259.084 367.8,257.444 C369.78,256.384 370.48,255.704 370.48,254.204 C370.48,252.644 369.1,251.344 367.12,251.344 C364.9,251.344 363.24,252.544 363.24,254.464 C363.24,255.764 363.66,256.524 365.72,258.224 C363.58,259.724 363.12,260.504 363.12,261.884 C363.12,263.764 364.7,265.144 366.96,265.144 C369.36,265.144 370.9,263.824 370.9,261.764 z M369.1,254.204 C369.1,255.444 368.58,256.284 367.22,257.084 C365.46,256.044 364.72,255.124 364.72,253.884 C364.72,252.644 365.58,251.904 366.92,251.904 C368.28,251.904 369.1,252.824 369.1,254.204 z M367.42,259.424 C368.78,260.344 369.38,261.144 369.38,262.384 C369.38,263.684 368.48,264.584 367.18,264.584 C365.66,264.584 364.64,263.544 364.64,261.704 C364.64,260.404 365.06,259.584 366.24,258.624 z" fill="#000000"/>
    <path d="M54.52,258.264 C54.52,254.164 52.7,251.344 50.08,251.344 C46.86,251.344 45.48,254.604 45.48,258.144 C45.48,261.424 46.58,265.144 50,265.144 C53.26,265.144 54.52,261.704 54.52,258.264 z M52.6,258.364 C52.6,262.324 51.7,264.624 50,264.624 C48.28,264.624 47.4,262.344 47.4,258.284 C47.4,254.224 48.3,251.864 49.96,251.864 C51.72,251.864 52.6,254.204 52.6,258.364 z" fill="#000000"/>
    <path d="M39.52,242.764 C39.52,238.664 37.7,235.844 35.08,235.844 C31.86,235.844 30.48,239.104 30.48,242.644 C30.48,245.924 31.58,249.644 35,249.644 C38.26,249.644 39.52,246.204 39.52,242.764 z M37.6,242.864 C37.6,246.824 36.7,249.124 35,249.124 C33.28,249.124 32.4,246.844 32.4,242.784 C32.4,238.724 33.3,236.364 34.96,236.364 C36.72,236.364 37.6,238.704 37.6,242.864 z" fill="#000000"/>
    <path d="M29.607,116.5 L29.607,116.2 C28.107,116.2 27.707,115.84 27.707,114.98 L27.707,103.04 L27.527,102.98 L23.947,104.8 L23.947,105.08 L24.487,104.88 C24.847,104.74 25.187,104.64 25.387,104.64 C25.807,104.64 25.987,104.94 25.987,105.62 L25.987,114.6 C25.987,115.7 25.567,116.12 24.087,116.2 L24.087,116.5 z" fill="#000000"/>
    <path d="M41.247,109.9 C41.247,105.8 39.427,102.98 36.807,102.98 C33.587,102.98 32.207,106.24 32.207,109.78 C32.207,113.06 33.307,116.78 36.727,116.78 C39.987,116.78 41.247,113.34 41.247,109.9 z M39.327,110 C39.327,113.96 38.427,116.26 36.727,116.26 C35.007,116.26 34.127,113.98 34.127,109.92 C34.127,105.86 35.027,103.5 36.687,103.5 C38.447,103.5 39.327,105.84 39.327,110 z" fill="#000000"/>
    <path d="M219.88,264.864 L219.88,264.564 C218.38,264.564 217.98,264.204 217.98,263.344 L217.98,251.404 L217.8,251.344 L214.22,253.164 L214.22,253.444 L214.76,253.244 C215.12,253.104 215.46,253.004 215.66,253.004 C216.08,253.004 216.26,253.304 216.26,253.984 L216.26,262.964 C216.26,264.064 215.84,264.484 214.36,264.564 L214.36,264.864 z" fill="#000000"/>
    <path d="M231.52,258.264 C231.52,254.164 229.7,251.344 227.08,251.344 C223.86,251.344 222.48,254.604 222.48,258.144 C222.48,261.424 223.58,265.144 227,265.144 C230.26,265.144 231.52,261.704 231.52,258.264 z M229.6,258.364 C229.6,262.324 228.7,264.624 227,264.624 C225.28,264.624 224.4,262.344 224.4,258.284 C224.4,254.224 225.3,251.864 226.96,251.864 C228.72,251.864 229.6,254.204 229.6,258.364 z" fill="#000000"/>
    <path d="M168.1,279.464 L171.2,279.464 L171.2,278.124 L168.1,278.124 L168.1,275.244 L166.4,275.244 L166.4,278.144 L164.64,278.224 L164.64,279.464 L166.4,279.464 L166.4,285.404 C166.4,287.104 167.26,288.044 168.9,288.044 C169.38,288.044 170.46,287.964 171.1,287.784 L170.9,286.484 L169.42,286.484 C168.46,286.484 168.1,286.124 168.1,285.184 z" fill="#000000"/>
    <path d="M173.8,273.984 C173.46,273.984 173.28,274.184 173.28,274.504 L173.28,275.644 C173.28,276.004 173.46,276.164 173.8,276.164 L174.6,276.164 C174.96,276.164 175.12,276.004 175.12,275.644 L175.12,274.504 C175.12,274.184 174.96,273.984 174.6,273.984 z M175.04,287.864 L175.04,278.124 L173.36,278.124 L173.36,287.864 z" fill="#000000"/>
    <path d="M179.64,278.124 L178.24,278.124 L178.24,287.864 L179.94,287.864 L179.94,280.824 C181.44,279.744 182.16,279.324 183.14,279.324 C184.16,279.324 184.66,279.784 184.66,281.044 L184.66,287.864 L186.3,287.864 L186.3,280.844 C187.78,279.764 188.5,279.324 189.5,279.324 C190.58,279.324 191,279.844 191.02,281.044 L191.02,287.864 L192.7,287.864 L192.7,280.564 C192.7,278.804 191.78,277.884 190.1,277.884 C188.78,277.884 187.52,278.444 186.18,279.604 C185.9,278.464 185.04,277.884 183.72,277.884 C182.36,277.884 181.08,278.504 179.74,279.664 z" fill="#000000"/>
    <path d="M201.62,283.824 C203.24,283.824 203.96,282.804 203.94,281.064 C203.94,278.964 202.7,277.884 199.76,277.884 C196.62,277.884 195.28,279.144 195.28,282.964 C195.28,286.704 196.58,288.104 199.94,288.104 C201.06,288.104 202.8,287.944 203.72,287.564 L203.54,286.424 C202.54,286.564 201.2,286.664 200.16,286.664 C198.16,286.664 197.26,286.144 197.08,283.824 z M197.06,282.504 C197.12,280.044 197.8,279.324 199.84,279.324 C201.58,279.324 202.22,279.824 202.24,281.064 C202.24,281.784 202.06,282.504 201.18,282.504 z" fill="#000000"/>
    <path d="M215.74,272.064 C212.12,273.444 210.48,276.444 210.48,281.624 C210.48,286.764 212.12,289.764 215.74,291.164 L215.96,290.344 C213.28,288.964 212.14,286.064 212.14,281.604 C212.14,277.064 213.28,274.184 215.96,272.884 z" fill="#000000"/>
    <path d="M221.66,283.924 C222.6,284.144 223.2,284.324 223.2,285.284 C223.2,286.444 222.52,286.644 220.34,286.644 C219.08,286.664 217.94,286.624 216.98,286.564 L216.86,287.804 C218.52,288.064 219.98,288.084 220.68,288.084 C223.5,288.084 224.84,287.684 224.84,285.284 C224.84,283.624 224.12,282.984 222.58,282.604 L219.74,281.964 C218.8,281.744 218.32,281.584 218.32,280.564 C218.32,279.344 218.92,279.304 220.72,279.324 C221.94,279.324 223.2,279.384 224.42,279.424 L224.56,278.184 C223.36,278.004 221.74,277.904 220.46,277.884 C217.8,277.844 216.66,278.304 216.66,280.564 C216.66,282.164 217.28,282.904 218.86,283.284 z" fill="#000000"/>
    <path d="M225.46,272.884 C228.12,274.184 229.26,277.064 229.26,281.604 C229.26,286.064 228.12,288.964 225.46,290.344 L225.66,291.164 C229.3,289.764 230.94,286.764 230.94,281.624 C230.94,276.444 229.3,273.444 225.66,272.064 z" fill="#000000"/>
    <g>
      <path d="M6.96,197.3 L6.96,199.1 L13.78,201.5 L15.48,202.1 L15.48,202.36 C14.94,202.54 14.34,202.74 13.78,202.94 L6.96,205.34 L6.96,207.16 L16.28,203.6 C16.54,203.5 16.7,203.28 16.7,203 L16.7,201.46 C16.7,201.18 16.54,200.96 16.28,200.86 z" fill="#000000"/>
      <path d="M12.66,189.5 C12.66,187.88 11.64,187.16 9.9,187.18 C7.8,187.18 6.72,188.42 6.72,191.36 C6.72,194.5 7.98,195.84 11.8,195.84 C15.54,195.84 16.94,194.54 16.94,191.18 C16.94,190.06 16.78,188.32 16.4,187.4 L15.26,187.58 C15.4,188.58 15.5,189.92 15.5,190.96 C15.5,192.96 14.98,193.86 12.66,194.04 z M11.34,194.06 C8.88,194 8.16,193.32 8.16,191.28 C8.16,189.54 8.66,188.9 9.9,188.88 C10.62,188.88 11.34,189.06 11.34,189.94 z" fill="#000000"/>
      <path d="M2.7,182.9 L2.7,184.6 L14.4,184.6 C16,184.6 16.88,183.66 16.88,182.22 C16.88,181.74 16.8,180.82 16.62,180.44 L15.32,180.64 L15.32,181.58 C15.32,182.44 14.88,182.92 14.02,182.9 z" fill="#000000"/>
      <path d="M6.72,174.56 C6.72,177.9 8.12,179.14 11.84,179.14 C15.58,179.14 16.96,177.9 16.96,174.56 C16.96,171.2 15.58,169.98 11.84,169.98 C8.12,169.98 6.72,171.2 6.72,174.56 z M8.16,174.56 C8.16,172.44 9,171.74 11.84,171.74 C14.68,171.74 15.52,172.44 15.52,174.56 C15.52,176.68 14.68,177.36 11.84,177.36 C9,177.36 8.16,176.68 8.16,174.56 z" fill="#000000"/>
      <path d="M15.3,160.02 C15.46,161.02 15.5,162.3 15.5,162.88 C15.5,165.2 14.68,166 11.82,166 C8.98,166 8.16,165.2 8.16,162.88 C8.16,162.2 8.2,161.12 8.28,160.24 L7.18,160.02 C6.82,160.98 6.72,162.3 6.72,163.16 C6.72,166.54 8.06,167.8 11.82,167.8 C15.58,167.8 16.94,166.54 16.94,163.18 C16.94,162.04 16.78,160.82 16.44,159.84 z" fill="#000000"/>
      <path d="M2.82,157.02 C2.82,157.36 3.02,157.54 3.34,157.54 L4.48,157.54 C4.84,157.54 5,157.36 5,157.02 L5,156.22 C5,155.86 4.84,155.7 4.48,155.7 L3.34,155.7 C3.02,155.7 2.82,155.86 2.82,156.22 z M16.7,155.78 L6.96,155.78 L6.96,157.46 L16.7,157.46 z" fill="#000000"/>
      <path d="M8.3,150.14 L8.3,147.04 L6.96,147.04 L6.96,150.14 L4.08,150.14 L4.08,151.84 L6.98,151.84 L7.06,153.6 L8.3,153.6 L8.3,151.84 L14.24,151.84 C15.94,151.84 16.88,150.98 16.88,149.34 C16.88,148.86 16.8,147.78 16.62,147.14 L15.32,147.34 L15.32,148.82 C15.32,149.78 14.96,150.14 14.02,150.14 z" fill="#000000"/>
      <path d="M6.96,136.32 L6.96,138.16 L14.22,140.7 C14.58,140.82 15,140.96 15.4,141.12 L15.4,141.4 C15,141.48 14.62,141.62 14.22,141.76 L6.96,144.34 L6.96,146.16 L16.26,142.62 C16.54,142.54 16.7,142.3 16.7,142.02 L16.7,141.64 L17.12,141.8 C18.34,142.3 19.2,143.06 19.7,144.64 L20.82,144.48 C20.7,142.06 18.96,140.86 17.24,140.22 z" fill="#000000"/>
      <path d="M0.9,125.14 C2.28,128.76 5.28,130.4 10.46,130.4 C15.6,130.4 18.6,128.76 20,125.14 L19.18,124.92 C17.8,127.6 14.9,128.74 10.44,128.74 C5.9,128.74 3.02,127.6 1.72,124.92 z" fill="#000000"/>
      <path d="M6.96,122.34 L6.96,123.74 L16.7,123.74 L16.7,122.04 L9.66,122.04 C8.58,120.54 8.16,119.82 8.16,118.84 C8.16,117.82 8.62,117.32 9.88,117.32 L16.7,117.32 L16.7,115.68 L9.68,115.68 C8.6,114.2 8.16,113.48 8.16,112.48 C8.16,111.4 8.68,110.98 9.88,110.96 L16.7,110.96 L16.7,109.28 L9.4,109.28 C7.64,109.28 6.72,110.2 6.72,111.88 C6.72,113.2 7.28,114.46 8.44,115.8 C7.3,116.08 6.72,116.94 6.72,118.26 C6.72,119.62 7.34,120.9 8.5,122.24 z" fill="#000000"/>
      <path d="M18.02,106.84 L2.9,98.98 L2.9,100.38 L18.02,108.24 z" fill="#000000"/>
      <path d="M12.76,93.44 C12.98,92.5 13.16,91.9 14.12,91.9 C15.28,91.9 15.48,92.58 15.48,94.76 C15.5,96.02 15.46,97.16 15.4,98.12 L16.64,98.24 C16.9,96.58 16.92,95.12 16.92,94.42 C16.92,91.6 16.52,90.26 14.12,90.26 C12.46,90.26 11.82,90.98 11.44,92.52 L10.8,95.36 C10.58,96.3 10.42,96.78 9.4,96.78 C8.18,96.78 8.14,96.18 8.16,94.38 C8.16,93.16 8.22,91.9 8.26,90.68 L7.02,90.54 C6.84,91.74 6.74,93.36 6.72,94.64 C6.68,97.3 7.14,98.44 9.4,98.44 C11,98.44 11.74,97.82 12.12,96.24 z" fill="#000000"/>
      <path d="M1.72,89.64 C3.02,86.98 5.9,85.84 10.44,85.84 C14.9,85.84 17.8,86.98 19.18,89.64 L20,89.44 C18.6,85.8 15.6,84.16 10.46,84.16 C5.28,84.16 2.28,85.8 0.9,89.44 z" fill="#000000"/>
    </g>
  </g>
</svg>
