<svg version="1.1" xmlns="http://www.w3.org/2000/svg" xmlns:xlink="http://www.w3.org/1999/xlink" width="740" height="688"><defs><clipPath id="qGIMftHACKLW"><path fill="none" stroke="none" d=" M 0 0 L 740 0 L 740 688 L 0 688 L 0 0 Z"/></clipPath></defs><g transform="scale(1,1)" clip-path="url(#qGIMftHACKLW)"><g><rect fill="rgb(255,255,255)" stroke="none" x="0" y="0" width="740" height="689" fill-opacity="1"/><path fill="none" stroke="rgb(37,37,37)" paint-order="fill stroke markers" d=" M 386 3 L 386 688" stroke-opacity="1" stroke-miterlimit="10" stroke-width="2"/><path fill="none" stroke="rgb(37,37,37)" paint-order="fill stroke markers" d=" M 386 2 L 381 7" stroke-opacity="1" stroke-miterlimit="10" stroke-width="2"/><path fill="none" stroke="rgb(37,37,37)" paint-order="fill stroke markers" d=" M 386 2 L 391 7" stroke-opacity="1" stroke-miterlimit="10" stroke-width="2"/><path fill="none" stroke="rgb(37,37,37)" paint-order="fill stroke markers" d=" M 0 490 L 737 490" stroke-opacity="1" stroke-miterlimit="10" stroke-width="2"/><path fill="none" stroke="rgb(37,37,37)" paint-order="fill stroke markers" d=" M 738 490 L 733 485" stroke-opacity="1" stroke-miterlimit="10" stroke-width="2"/><path fill="none" stroke="rgb(37,37,37)" paint-order="fill stroke markers" d=" M 738 490 L 733 495" stroke-opacity="1" stroke-miterlimit="10" stroke-width="2"/><path fill="rgb(0,143,0)" stroke="none" paint-order="stroke fill markers" d=" M 568.954655224446 123.07588989581474 L 557.5507085391971 136.38049436193847 L 560.2339901121969 137.72213514843835 L 384.5746883334519 489.04073870592816 C 384.26595177256235 489.65821182770725 384.5162322060478 490.40905312816346 385.1337053278269 490.717789689053 C 385.31316456903886 490.80751930965897 385.5038892398805 490.85002952099984 385.6917517465788 490.85002952099984 C 386.15027583826827 490.85002952099984 386.59174937066814 490.5967865752451 386.8107563109517 490.158772694678 L 562.4700580896966 138.84016913718824 L 562.4700580896967 138.84016913718824 L 565.1533396626965 140.1818099236881 L 568.954655224446 123.07588989581474 Z" fill-opacity="0.6980392156862745"/><g transform="scale(19,19)"><g transform="translate(26.210526315789473,15.970315789473686)"><path fill="rgb(0,143,0)" stroke="none" paint-order="stroke fill markers" d=" M 0.506 -0.376 L 0.34 -0.02 Q 0.329 0.004 0.303 0.004 Q 0.277 0.004 0.265 -0.021 L 0.09 -0.397 L 0.026000000000000002 -0.397 L 0.026000000000000002 -0.444 Q 0.036000000000000004 -0.444 0.08 -0.4425 Q 0.124 -0.441 0.14 -0.441 Q 0.214 -0.441 0.264 -0.444 L 0.264 -0.397 L 0.21 -0.397 L 0.337 -0.124 L 0.453 -0.374 Q 0.458 -0.384 0.458 -0.386 Q 0.458 -0.397 0.41000000000000003 -0.397 L 0.41000000000000003 -0.444 Q 0.47300000000000003 -0.441 0.501 -0.441 Q 0.542 -0.441 0.58 -0.444 L 0.58 -0.397 Q 0.536 -0.397 0.5235 -0.3925 Q 0.511 -0.388 0.506 -0.376 Z"/></g><g transform="translate(26.833526315789474,16.120315789473686) scale(0.7,0.7)"><path fill="rgb(0,143,0)" stroke="none" paint-order="stroke fill markers" d=" M 0.294 -0.64 L 0.294 -0.079 Q 0.294 -0.049 0.306 -0.041 Q 0.323 -0.031 0.387 -0.031 L 0.419 -0.031 L 0.419 0 Q 0.384 -0.003 0.257 -0.003 Q 0.13 -0.003 0.095 0 L 0.095 -0.031 L 0.127 -0.031 Q 0.20400000000000001 -0.031 0.215 -0.049 L 0.216 -0.05 Q 0.22 -0.058 0.22 -0.079 L 0.22 -0.597 Q 0.168 -0.5710000000000001 0.089 -0.5710000000000001 L 0.089 -0.602 Q 0.209 -0.602 0.271 -0.666 Q 0.29 -0.666 0.293 -0.659 L 0.293 -0.659 L 0.293 -0.658 Q 0.294 -0.655 0.294 -0.64 Z"/></g></g><path fill="rgb(255,147,0)" stroke="none" paint-order="stroke fill markers" d=" M 202.43078941995762 306.33782279805894 L 211.44640088008612 321.36384189827305 L 213.56772122364572 319.24252155471345 L 213.5677212236458 319.24252155471345 L 384.80883884571864 490.48363917678626 C 385.0529165280632 490.7277168591308 385.3728194251325 490.84975570030304 385.6927223222018 490.84975570030304 C 386.0126252192711 490.84975570030304 386.3325281163404 490.7277168591308 386.57660579868497 490.48363917678626 C 387.06476116337404 489.9954838120972 387.06476116337404 489.204027588509 386.57660579868497 488.71587222381993 L 215.33548817661213 317.47475460174707 L 215.3354881766121 317.47475460174707 L 217.45680852017176 315.3534342581874 L 202.43078941995762 306.33782279805894 Z" fill-opacity="0.6980392156862745"/><g transform="scale(19,19)"><g transform="translate(13.68421052631579,21.549263157894735)"><path fill="rgb(255,147,0)" stroke="none" paint-order="stroke fill markers" d=" M 0.506 -0.376 L 0.34 -0.02 Q 0.329 0.004 0.303 0.004 Q 0.277 0.004 0.265 -0.021 L 0.09 -0.397 L 0.026000000000000002 -0.397 L 0.026000000000000002 -0.444 Q 0.036000000000000004 -0.444 0.08 -0.4425 Q 0.124 -0.441 0.14 -0.441 Q 0.214 -0.441 0.264 -0.444 L 0.264 -0.397 L 0.21 -0.397 L 0.337 -0.124 L 0.453 -0.374 Q 0.458 -0.384 0.458 -0.386 Q 0.458 -0.397 0.41000000000000003 -0.397 L 0.41000000000000003 -0.444 Q 0.47300000000000003 -0.441 0.501 -0.441 Q 0.542 -0.441 0.58 -0.444 L 0.58 -0.397 Q 0.536 -0.397 0.5235 -0.3925 Q 0.511 -0.388 0.506 -0.376 Z"/></g><g transform="translate(14.307210526315789,21.699263157894734) scale(0.7,0.7)"><path fill="rgb(255,147,0)" stroke="none" paint-order="stroke fill markers" d=" M 0.449 -0.17400000000000002 L 0.449 -0.17400000000000002 L 0.421 0 L 0.05 0 Q 0.05 -0.025 0.056 -0.032 L 0.061 -0.037 L 0.253 -0.251 Q 0.358 -0.369 0.358 -0.47200000000000003 Q 0.358 -0.561 0.304 -0.607 L 0.303 -0.608 L 0.302 -0.608 Q 0.27 -0.635 0.224 -0.635 Q 0.152 -0.635 0.109 -0.5730000000000001 Q 0.097 -0.555 0.089 -0.533 Q 0.092 -0.534 0.10200000000000001 -0.534 Q 0.14200000000000002 -0.534 0.153 -0.498 L 0.153 -0.497 Q 0.155 -0.49 0.155 -0.482 Q 0.155 -0.442 0.117 -0.431 Q 0.109 -0.429 0.10300000000000001 -0.429 Q 0.066 -0.429 0.054 -0.46 Q 0.05 -0.47100000000000003 0.05 -0.485 Q 0.05 -0.562 0.109 -0.617 Q 0.162 -0.666 0.23700000000000002 -0.666 Q 0.34700000000000003 -0.666 0.40800000000000003 -0.592 Q 0.443 -0.549 0.448 -0.49 Q 0.449 -0.481 0.449 -0.47200000000000003 Q 0.449 -0.399 0.394 -0.333 Q 0.365 -0.299 0.304 -0.243 L 0.243 -0.189 L 0.233 -0.18 L 0.127 -0.077 L 0.307 -0.077 Q 0.395 -0.077 0.402 -0.085 Q 0.41200000000000003 -0.099 0.424 -0.17400000000000002 L 0.449 -0.17400000000000002 Z"/></g></g></g></g></svg>